<svg id="Capa_1" data-name="Capa 1" xmlns="http://www.w3.org/2000/svg" viewBox="0 0 1248.56 535.66"><defs><style>.cls-1{fill:#fff;}</style></defs><path class="cls-1" d="M-159.58,513.68c15.45-30,32.25-59.34,50.37-87.77C-97.95,408.36-86.31,391-74.1,374c3.24-4.39,6.3-8.77,9.54-13,1.53-2.1,3.05-4,4.58-6.11.95-1.14,1.72-2.29,2.67-3.62,4.39-5.73-2.29,2.86.38-.39,7.44-9.34,14.69-18.5,22.33-27.66,72.5-86.63,152.45-154.17,251.85-205.11a627.29,627.29,0,0,1,96.93-40.84A777.63,777.63,0,0,1,433.43,48.12C421.79,36.48,410,24.65,398.13,13c-36.25,97.69-49,204.35-35.29,307.77a675,675,0,0,0,18.89,93.11c5.53,19.65,33.39,29.19,47.89,12.59,12.4-14.12,25.37-27.66,39.11-40.64,8.59-8,17.17-15.83,26.14-23.28,2.48-1.9,4.77-4,7.25-5.91,1.15-1,2.48-1.91,3.82-3,.57-.58,4.77-3.63,1.91-1.53-2.67,1.91.76-.57.95-.76,1.34-1,2.67-1.91,4-3.06l10.3-7.44c54.19-38.35,109.14-63.34,173.25-78,37-8.39,70.21-11.83,109.33-11.63-6.68-16.22-13.55-32.63-20.23-48.85-50.18,52.28-71.74,129.36-49.8,199.39,22.52,72.12,86.82,119.44,162.19,121.73,44.07,1.34,88.72-13,124-39.11,12.4-9.16,18.7-24.81,10.3-39.12-7.25-12.21-26.71-19.46-39.11-10.3A176.53,176.53,0,0,1,972.64,448c-3.43,1.91-7.06,3.63-10.49,5.35-5,2.48-2.48,1.14-1.34.76-2.67,1.14-5.34,2.1-8.2,3.05a182.56,182.56,0,0,1-22.14,6.3c-3.62.76-7.44,1.52-11.06,1.91,1.33-.19,5-.39-.77,0-2.29.19-4.58.38-7.06.57a172.09,172.09,0,0,1-22.13-.38c-1.91-.19-3.62-.38-5.53-.58-4.77-.57,4.2.77-.57-.19-4-.76-8-1.52-12-2.48a133.72,133.72,0,0,1-20.42-6.67c4.58,1.9-3.63-1.91-5.15-2.68-3.82-2.09-7.83-4.38-11.45-6.67-1.53-1-8.59-6.3-5-3.25-2.48-2.1-5.15-4.2-7.44-6.48a76.37,76.37,0,0,1-6.68-6.87c-1.15-1.15-2.1-2.29-3.24-3.63-.39-.57-4.58-5.72-2.29-2.67,1.9,2.29-2.68-3.82-3.44-4.77-1.72-2.67-3.43-5.34-5.15-8.2-1.53-2.87-3.05-5.54-4.58-8.59-.76-1.53-1.34-2.86-2.1-4.39-3.43-7.06,1.72,5.34-.95-2.1-2.1-6.1-4.2-12.21-5.92-18.7-.76-3.24-1.52-6.48-2.1-9.54a44.37,44.37,0,0,1-.76-5c.76,4.2.19,1.72,0-.95a176.66,176.66,0,0,1-.76-20,90.29,90.29,0,0,1,.57-10.11,47,47,0,0,0,.38-5.15c.19-3.43-.76,4.2.19-1.34a207,207,0,0,1,5.54-23.85c1.14-3.81,2.48-7.44,3.81-11.25,1.91-5.16.57-1.72.19-.58,1.15-2.48,2.29-4.77,3.44-7.25a197,197,0,0,1,12.4-21.18c.95-1.52,2.1-3.05,3.24-4.57,5-7.06-3.43,3.62,2.48-3.06,3.25-3.62,6.3-7.25,9.54-10.68,17.18-17.75,5-48.66-20.22-48.85-137-.57-267.7,51.71-369,143.49A598.3,598.3,0,0,0,389,385.27c16,4.2,31.86,8.39,47.89,12.59-34.73-123.64-28.05-250.14,16.41-370.35,3.43-9.34-.58-21.17-7.44-27.85C438-8.17,428.47-9.31,418-7.78c-133.37,21.56-257,78.61-362.72,162C-25.06,217.74-93,296-149.28,381.26A1117.92,1117.92,0,0,0-209,483.53c-7.06,13.74-3.62,31.1,10.31,39.12,12.78,8.77,32.05,4.77,39.11-9Z" transform="translate(212.56 8.37)"/></svg>