<?xml version="1.0" encoding="utf-8"?>
<!-- Generator: Adobe Illustrator 24.2.1, SVG Export Plug-In . SVG Version: 6.00 Build 0)  -->
<svg version="1.1" id="Capa_1" xmlns="http://www.w3.org/2000/svg" xmlns:xlink="http://www.w3.org/1999/xlink" x="0px" y="0px"
	 viewBox="0 0 841.9 595.3" style="enable-background:new 0 0 841.9 595.3;" xml:space="preserve">
<g>
	<g>
		<path d="M112.3,392.7c8.1-15.7,16.9-31.1,26.4-46c5.9-9.2,12-18.3,18.4-27.2c1.7-2.3,3.3-4.6,5-6.8c0.8-1.1,1.6-2.1,2.4-3.2
			c0.5-0.6,0.9-1.2,1.4-1.9c2.3-3-1.2,1.5,0.2-0.2c3.9-4.9,7.7-9.7,11.7-14.5c38-45.4,79.9-80.8,132-107.5
			c17.6-9.1,31.9-15.1,50.8-21.4c20.4-6.8,41.3-11.8,62.5-15.3c-6.1-6.1-12.3-12.3-18.5-18.4c-19,51.2-25.7,107.1-18.5,161.3
			c2.2,16.5,5.4,32.7,9.9,48.8c2.9,10.3,17.5,15.3,25.1,6.6c6.5-7.4,13.3-14.5,20.5-21.3c4.5-4.2,9-8.3,13.7-12.2
			c1.3-1,2.5-2.1,3.8-3.1c0.6-0.5,1.3-1,2-1.6c0.3-0.3,2.5-1.9,1-0.8c-1.4,1,0.4-0.3,0.5-0.4c0.7-0.5,1.4-1,2.1-1.6
			c1.8-1.3,3.6-2.6,5.4-3.9c28.4-20.1,57.2-33.2,90.8-40.9c19.4-4.4,36.8-6.2,57.3-6.1c-3.5-8.5-7.1-17.1-10.6-25.6
			c-26.3,27.4-37.6,67.8-26.1,104.5c11.8,37.8,45.5,62.6,85,63.8c23.1,0.7,46.5-6.8,65-20.5c6.5-4.8,9.8-13,5.4-20.5
			c-3.8-6.4-14-10.2-20.5-5.4c-3.4,2.5-7,4.9-10.7,6.9c-1.8,1-3.7,1.9-5.5,2.8c-2.6,1.3-1.3,0.6-0.7,0.4c-1.4,0.6-2.8,1.1-4.3,1.6
			c-3.8,1.4-7.7,2.4-11.6,3.3c-1.9,0.4-3.9,0.8-5.8,1c0.7-0.1,2.6-0.2-0.4,0c-1.2,0.1-2.4,0.2-3.7,0.3c-3.9,0.2-7.7,0.1-11.6-0.2
			c-1-0.1-1.9-0.2-2.9-0.3c-2.5-0.3,2.2,0.4-0.3-0.1c-2.1-0.4-4.2-0.8-6.3-1.3c-3.6-0.9-7.2-2-10.7-3.5c2.4,1-1.9-1-2.7-1.4
			c-2-1.1-4.1-2.3-6-3.5c-0.8-0.5-4.5-3.3-2.6-1.7c-1.3-1.1-2.7-2.2-3.9-3.4c-1.2-1.1-2.4-2.3-3.5-3.6c-0.6-0.6-1.1-1.2-1.7-1.9
			c-0.2-0.3-2.4-3-1.2-1.4c1,1.2-1.4-2-1.8-2.5c-0.9-1.4-1.8-2.8-2.7-4.3c-0.8-1.5-1.6-2.9-2.4-4.5c-0.4-0.8-0.7-1.5-1.1-2.3
			c-1.8-3.7,0.9,2.8-0.5-1.1c-1.1-3.2-2.2-6.4-3.1-9.8c-0.4-1.7-0.8-3.4-1.1-5c-0.2-0.9-0.3-1.7-0.4-2.6c0.4,2.2,0.1,0.9,0-0.5
			c-0.3-3.5-0.5-7-0.4-10.5c0-1.8,0.1-3.5,0.3-5.3c0.1-0.9,0.2-1.8,0.2-2.7c0.1-1.8-0.4,2.2,0.1-0.7c0.7-4.2,1.7-8.4,2.9-12.5
			c0.6-2,1.3-3.9,2-5.9c1-2.7,0.3-0.9,0.1-0.3c0.6-1.3,1.2-2.5,1.8-3.8c1.9-3.8,4.1-7.5,6.5-11.1c0.5-0.8,1.1-1.6,1.7-2.4
			c2.6-3.7-1.8,1.9,1.3-1.6c1.7-1.9,3.3-3.8,5-5.6c9-9.3,2.6-25.5-10.6-25.6c-71.8-0.3-140.3,27.1-193.4,75.2
			c-8.8,8-17.1,16.5-24.9,25.4c8.4,2.2,16.7,4.4,25.1,6.6c-18.2-64.8-14.7-131.1,8.6-194.1c1.8-4.9-0.3-11.1-3.9-14.6
			c-4.1-4.1-9.1-4.7-14.6-3.9c-69.9,11.3-134.7,41.2-190.1,84.9c-42.1,33.3-77.7,74.3-107.2,119c-11.4,17.3-21.8,35.2-31.3,53.6
			c-3.7,7.2-1.9,16.3,5.4,20.5C98.5,402,108.6,399.9,112.3,392.7L112.3,392.7z"/>
	</g>
</g>
</svg>
