<?xml version="1.0" encoding="utf-8"?>
<!-- Generator: Adobe Illustrator 24.2.1, SVG Export Plug-In . SVG Version: 6.00 Build 0)  -->
<svg version="1.1" id="Outline" xmlns="http://www.w3.org/2000/svg" xmlns:xlink="http://www.w3.org/1999/xlink" x="0px" y="0px"
	 viewBox="0 0 512 512" style="enable-background:new 0 0 512 512;" xml:space="preserve">
<style type="text/css">
	.st0{stroke:#000000;stroke-width:10;stroke-miterlimit:10;}
</style>
<path class="st0" d="M256,274.9c81.1,0,146.9-65.8,146.9-146.9S337.1-18.9,256-18.9S109.1,46.9,109.1,128
	C109.2,209.1,174.9,274.8,256,274.9z M256,30.1c54.1,0,97.9,43.8,97.9,97.9s-43.8,97.9-97.9,97.9s-97.9-43.8-97.9-97.9
	S201.9,30.1,256,30.1z"/>
<path class="st0" d="M256,298.7c-106,0.1-191.9,86-192,192c0,11.8,9.6,21.3,21.3,21.3s21.3-9.6,21.3-21.3
	c0-82.5,66.9-149.3,149.3-149.3s149.3,66.9,149.3,149.3c0,11.8,9.6,21.3,21.3,21.3c11.8,0,21.3-9.6,21.3-21.3
	C447.9,384.7,362,298.8,256,298.7z"/>
</svg>
